<mxfile host="65bd71144e" modified="2021-11-04T06:49:43.249Z" agent="5.0 (Windows NT 10.0; Win64; x64) AppleWebKit/537.36 (KHTML, like Gecko) Code/1.61.2 Chrome/91.0.4472.164 Electron/13.5.1 Safari/537.36" etag="I3XrnC3XKREzwnP-JVjh" version="15.6.8" type="embed">
    <diagram name="お客様見積画面" id="rgbgES4tJEKVGF54ZIPd">
        <mxGraphModel dx="747" dy="437" grid="1" gridSize="10" guides="0" tooltips="1" connect="0" arrows="0" fold="1" page="1" pageScale="1" pageWidth="827" pageHeight="1169" math="0" shadow="1">
            <root>
                <mxCell id="jopfzJTQR7Z_EkR9QJMv-0"/>
                <object label="背景" id="jopfzJTQR7Z_EkR9QJMv-1">
                    <mxCell style="locked=1;" parent="jopfzJTQR7Z_EkR9QJMv-0"/>
                </object>
                <mxCell id="jopfzJTQR7Z_EkR9QJMv-2" value="" style="rounded=0;whiteSpace=wrap;html=1;shadow=1;" parent="jopfzJTQR7Z_EkR9QJMv-1" vertex="1">
                    <mxGeometry x="80" y="50" width="300" height="210" as="geometry"/>
                </mxCell>
                <object label="パーツ" id="jopfzJTQR7Z_EkR9QJMv-3">
                    <mxCell style="" parent="jopfzJTQR7Z_EkR9QJMv-0"/>
                </object>
                <mxCell id="jopfzJTQR7Z_EkR9QJMv-4" value="ボトルネック検索" style="text;html=1;strokeColor=none;fillColor=none;align=center;verticalAlign=middle;whiteSpace=wrap;rounded=0;" parent="jopfzJTQR7Z_EkR9QJMv-3" vertex="1">
                    <mxGeometry x="160" y="60" width="110" height="30" as="geometry"/>
                </mxCell>
                <mxCell id="jopfzJTQR7Z_EkR9QJMv-67" value="" style="rounded=0;whiteSpace=wrap;html=1;" parent="jopfzJTQR7Z_EkR9QJMv-3" vertex="1">
                    <mxGeometry x="170" y="210" width="120" height="30" as="geometry"/>
                </mxCell>
                <mxCell id="26" value="" style="rounded=0;whiteSpace=wrap;html=1;" vertex="1" parent="jopfzJTQR7Z_EkR9QJMv-3">
                    <mxGeometry x="170" y="100" width="140" height="30" as="geometry"/>
                </mxCell>
                <mxCell id="27" value="CPU" style="text;html=1;strokeColor=none;fillColor=none;align=center;verticalAlign=middle;whiteSpace=wrap;rounded=0;" vertex="1" parent="jopfzJTQR7Z_EkR9QJMv-3">
                    <mxGeometry x="120" y="100" width="30" height="30" as="geometry"/>
                </mxCell>
                <mxCell id="28" value="GPU" style="text;html=1;strokeColor=none;fillColor=none;align=center;verticalAlign=middle;whiteSpace=wrap;rounded=0;" vertex="1" parent="jopfzJTQR7Z_EkR9QJMv-3">
                    <mxGeometry x="120" y="150" width="30" height="30" as="geometry"/>
                </mxCell>
                <mxCell id="29" value="" style="rounded=0;whiteSpace=wrap;html=1;" vertex="1" parent="jopfzJTQR7Z_EkR9QJMv-3">
                    <mxGeometry x="170" y="150" width="140" height="30" as="geometry"/>
                </mxCell>
                <mxCell id="31" value="▼" style="rounded=0;whiteSpace=wrap;html=1;" vertex="1" parent="jopfzJTQR7Z_EkR9QJMv-3">
                    <mxGeometry x="290" y="100" width="20" height="30" as="geometry"/>
                </mxCell>
                <mxCell id="32" value="▼" style="rounded=0;whiteSpace=wrap;html=1;" vertex="1" parent="jopfzJTQR7Z_EkR9QJMv-3">
                    <mxGeometry x="290" y="150" width="20" height="30" as="geometry"/>
                </mxCell>
                <mxCell id="34" value="結果" style="text;html=1;strokeColor=none;fillColor=none;align=center;verticalAlign=middle;whiteSpace=wrap;rounded=0;" vertex="1" parent="jopfzJTQR7Z_EkR9QJMv-3">
                    <mxGeometry x="120" y="210" width="30" height="30" as="geometry"/>
                </mxCell>
                <mxCell id="36" value="%" style="text;html=1;strokeColor=none;fillColor=none;align=center;verticalAlign=middle;whiteSpace=wrap;rounded=0;" vertex="1" parent="jopfzJTQR7Z_EkR9QJMv-3">
                    <mxGeometry x="290" y="210" width="20" height="30" as="geometry"/>
                </mxCell>
                <object label="矢印" id="jopfzJTQR7Z_EkR9QJMv-74">
                    <mxCell style="" parent="jopfzJTQR7Z_EkR9QJMv-0"/>
                </object>
                <mxCell id="jopfzJTQR7Z_EkR9QJMv-75" value="①" style="whiteSpace=wrap;html=1;aspect=fixed;shadow=1;" parent="jopfzJTQR7Z_EkR9QJMv-74" vertex="1">
                    <mxGeometry x="190" y="10" width="20" height="20" as="geometry"/>
                </mxCell>
                <mxCell id="jopfzJTQR7Z_EkR9QJMv-78" value="②" style="whiteSpace=wrap;html=1;aspect=fixed;shadow=1;" parent="jopfzJTQR7Z_EkR9QJMv-74" vertex="1">
                    <mxGeometry x="40" y="70" width="20" height="20" as="geometry"/>
                </mxCell>
                <mxCell id="jopfzJTQR7Z_EkR9QJMv-83" value="" style="endArrow=none;html=1;rounded=0;entryX=0.411;entryY=1.094;entryDx=0;entryDy=0;entryPerimeter=0;exitX=0.455;exitY=0;exitDx=0;exitDy=0;exitPerimeter=0;" parent="jopfzJTQR7Z_EkR9QJMv-74" target="jopfzJTQR7Z_EkR9QJMv-75" edge="1" source="jopfzJTQR7Z_EkR9QJMv-4">
                    <mxGeometry width="50" height="50" relative="1" as="geometry">
                        <mxPoint x="287.5" y="60" as="sourcePoint"/>
                        <mxPoint x="200" y="20" as="targetPoint"/>
                    </mxGeometry>
                </mxCell>
                <mxCell id="37" value="" style="endArrow=none;html=1;rounded=0;entryX=1.032;entryY=0.645;entryDx=0;entryDy=0;entryPerimeter=0;" edge="1" parent="jopfzJTQR7Z_EkR9QJMv-74" source="27" target="jopfzJTQR7Z_EkR9QJMv-78">
                    <mxGeometry width="50" height="50" relative="1" as="geometry">
                        <mxPoint x="220.05000000000007" y="69.99999999999994" as="sourcePoint"/>
                        <mxPoint x="208.22000000000014" y="41.879999999999995" as="targetPoint"/>
                    </mxGeometry>
                </mxCell>
                <mxCell id="38" value="③" style="whiteSpace=wrap;html=1;aspect=fixed;shadow=1;" vertex="1" parent="jopfzJTQR7Z_EkR9QJMv-74">
                    <mxGeometry x="400" y="100" width="20" height="20" as="geometry"/>
                </mxCell>
                <mxCell id="39" value="" style="endArrow=none;html=1;rounded=0;exitX=1.048;exitY=0.512;exitDx=0;exitDy=0;exitPerimeter=0;entryX=-0.036;entryY=0.462;entryDx=0;entryDy=0;entryPerimeter=0;" edge="1" parent="jopfzJTQR7Z_EkR9QJMv-74" source="31" target="38">
                    <mxGeometry width="50" height="50" relative="1" as="geometry">
                        <mxPoint x="320" y="115" as="sourcePoint"/>
                        <mxPoint x="390" y="110" as="targetPoint"/>
                    </mxGeometry>
                </mxCell>
                <mxCell id="40" value="④" style="whiteSpace=wrap;html=1;aspect=fixed;shadow=1;" vertex="1" parent="jopfzJTQR7Z_EkR9QJMv-74">
                    <mxGeometry x="40" y="140" width="20" height="20" as="geometry"/>
                </mxCell>
                <mxCell id="41" value="⑤" style="whiteSpace=wrap;html=1;aspect=fixed;shadow=1;" vertex="1" parent="jopfzJTQR7Z_EkR9QJMv-74">
                    <mxGeometry x="400" y="140" width="20" height="20" as="geometry"/>
                </mxCell>
                <mxCell id="46" value="" style="endArrow=none;html=1;rounded=0;entryX=1.055;entryY=0.393;entryDx=0;entryDy=0;entryPerimeter=0;exitX=-0.109;exitY=0.476;exitDx=0;exitDy=0;exitPerimeter=0;" edge="1" parent="jopfzJTQR7Z_EkR9QJMv-74" source="28" target="40">
                    <mxGeometry width="50" height="50" relative="1" as="geometry">
                        <mxPoint x="130" y="118.52474448628288" as="sourcePoint"/>
                        <mxPoint x="70.63999999999999" y="92.89999999999998" as="targetPoint"/>
                    </mxGeometry>
                </mxCell>
                <mxCell id="47" value="" style="endArrow=none;html=1;rounded=0;exitX=0.983;exitY=0.433;exitDx=0;exitDy=0;exitPerimeter=0;" edge="1" parent="jopfzJTQR7Z_EkR9QJMv-74" source="32" target="41">
                    <mxGeometry width="50" height="50" relative="1" as="geometry">
                        <mxPoint x="528.74" y="158.52999999999997" as="sourcePoint"/>
                        <mxPoint x="431.1" y="147.86" as="targetPoint"/>
                    </mxGeometry>
                </mxCell>
                <mxCell id="48" value="⑥" style="whiteSpace=wrap;html=1;aspect=fixed;shadow=1;" vertex="1" parent="jopfzJTQR7Z_EkR9QJMv-74">
                    <mxGeometry x="40" y="200" width="20" height="20" as="geometry"/>
                </mxCell>
                <mxCell id="49" value="⑦" style="whiteSpace=wrap;html=1;aspect=fixed;shadow=1;" vertex="1" parent="jopfzJTQR7Z_EkR9QJMv-74">
                    <mxGeometry x="390" y="180" width="20" height="20" as="geometry"/>
                </mxCell>
                <mxCell id="50" value="" style="endArrow=none;html=1;rounded=0;entryX=1.055;entryY=0.444;entryDx=0;entryDy=0;entryPerimeter=0;" edge="1" parent="jopfzJTQR7Z_EkR9QJMv-74" source="34" target="48">
                    <mxGeometry width="50" height="50" relative="1" as="geometry">
                        <mxPoint x="126.73000000000002" y="174.27999999999997" as="sourcePoint"/>
                        <mxPoint x="71.10000000000002" y="157.86" as="targetPoint"/>
                    </mxGeometry>
                </mxCell>
                <mxCell id="51" value="" style="endArrow=none;html=1;rounded=0;exitX=0.924;exitY=-0.021;exitDx=0;exitDy=0;exitPerimeter=0;entryX=-0.054;entryY=0.465;entryDx=0;entryDy=0;entryPerimeter=0;" edge="1" parent="jopfzJTQR7Z_EkR9QJMv-74" source="jopfzJTQR7Z_EkR9QJMv-67" target="49">
                    <mxGeometry width="50" height="50" relative="1" as="geometry">
                        <mxPoint x="127.17999999999995" y="225.30999999999995" as="sourcePoint"/>
                        <mxPoint x="400" y="212" as="targetPoint"/>
                    </mxGeometry>
                </mxCell>
                <mxCell id="52" value="⑧" style="whiteSpace=wrap;html=1;aspect=fixed;shadow=1;" vertex="1" parent="jopfzJTQR7Z_EkR9QJMv-74">
                    <mxGeometry x="400" y="210" width="20" height="20" as="geometry"/>
                </mxCell>
                <mxCell id="53" value="" style="endArrow=none;html=1;rounded=0;entryX=0;entryY=0.5;entryDx=0;entryDy=0;entryPerimeter=0;" edge="1" parent="jopfzJTQR7Z_EkR9QJMv-74" source="36" target="52">
                    <mxGeometry width="50" height="50" relative="1" as="geometry">
                        <mxPoint x="297.0000000000001" y="221.68" as="sourcePoint"/>
                        <mxPoint x="410" y="222" as="targetPoint"/>
                    </mxGeometry>
                </mxCell>
            </root>
        </mxGraphModel>
    </diagram>
</mxfile>